<?xml version="1.0" encoding="utf-8"?>
<!-- Svg Vector Icons : http://www.onlinewebfonts.com/icon -->
<!DOCTYPE svg PUBLIC "-//W3C//DTD SVG 1.1//EN" "http://www.w3.org/Graphics/SVG/1.1/DTD/svg11.dtd">
<svg version="1.1" xmlns="http://www.w3.org/2000/svg" xmlns:xlink="http://www.w3.org/1999/xlink" x="0px" y="0px" viewBox="0 0 1000 1000" enable-background="new 0 0 1000 1000" xml:space="preserve">
<metadata> Svg Vector Icons : http://www.onlinewebfonts.com/icon </metadata>
<g><g transform="translate(0.000000,511.000000) scale(0.100000,-0.100000)"><path d="M4928.9,4989c-81-37.5-87-90.9-87-687.8c0-571.2,0-571.2,45.4-624.5c65.2-73.1,160.1-73.1,225.3,0c45.4,53.4,45.4,53.4,45.4,624.5c0,604.8-5.9,650.2-92.9,689.7C5007.9,5016.7,4984.2,5016.7,4928.9,4989z"/><path d="M2333.9,4249.8c-85-106.7-73.1-122.5,389.3-585c371.6-373.5,438.8-430.8,490.1-430.8c81,0,146.3,71.1,146.3,160.1c0,63.2-33.6,102.8-421,488.2c-393.3,391.3-424.9,419-492.1,419C2391.2,4301.2,2363.5,4287.4,2333.9,4249.8z"/><path d="M7061.3,3882.2c-393.3-391.3-421-424.9-421-490.1c0-88.9,65.2-158.1,148.2-158.1c49.4,0,124.5,67.2,488.2,430.8c462.5,462.5,474.3,478.3,389.3,585c-29.6,37.5-57.3,51.4-112.6,51.4C7486.2,4301.2,7454.6,4273.6,7061.3,3882.2z"/><path d="M4347.8,3093.7c-729.3-88.9-1381.5-492.1-1788.6-1104.8c-219.4-326.1-357.7-699.6-405.2-1087c-11.9-104.7-19.8-840-19.8-1960.5v-1794.5h-492.1c-438.8,0-496.1-4-533.6-33.6c-29.6-25.7-120.6-270.8-318.2-865.6c-152.2-456.5-276.7-853.8-276.7-885.4c0-31.6,19.8-75.1,49.4-102.8l47.4-49.4H4996h4385.5l53.4,41.5c33.6,25.7,51.4,59.3,51.4,96.9c0,94.9-551.4,1725.4-596.9,1764.9c-35.6,29.6-90.9,33.6-531.6,33.6h-492.1v1794.5c0,1120.6-7.9,1855.8-19.8,1960.5c-102.8,836-622.5,1569.2-1375.5,1944.7c-197.6,96.8-421,173.9-640.4,221.4C5654.2,3105.5,4588.9,3123.3,4347.8,3093.7z M5867.6,2741.9c816.2-211.5,1391.3-784.6,1628.5-1620.6c41.5-148.2,43.5-173.9,49.4-2063.3l5.9-1911.1H5000H2450.5v1843.9c2,1986.2,2,1984.3,106.7,2302.5c256.9,770.8,901.2,1324.2,1715.5,1476.3c106.7,21.7,308.3,25.7,786.6,21.7C5642.3,2785.4,5717.4,2781.4,5867.6,2741.9z M8899.3-3807.8c116.6-349.8,211.5-644.3,211.5-652.2c0-7.9-1849.9-13.8-4110.8-13.8c-2260.9,0-4110.8,5.9-4110.8,13.8c0,7.9,94.9,302.4,211.5,652.2l213.4,638.4H5000h3685.9L8899.3-3807.8z"/><path d="M3262.8,1700.3c-41.5-51.4-41.5-69.2-41.5-1187.8V-621.9l49.4-47.4c87-88.9,211.5-53.4,247,71.2c27.7,96.8,25.7,2168-2,2249.1C3476.2,1763.6,3333.9,1791.3,3262.8,1700.3z"/><path d="M3310.2-1511.2c-83-47.4-88.9-71.2-88.9-413.1c0-318.2,2-330,45.5-371.5c57.3-55.3,158.1-57.3,209.5-5.9c55.3,55.3,65.2,140.3,57.3,444.7c-5.9,237.1-9.9,272.7-45.4,306.3C3436.7-1501.3,3359.6-1483.6,3310.2-1511.2z"/></g></g>
</svg>